<svg width="1600" height="850" viewBox="0 0 1600 850" fill="none" xmlns="http://www.w3.org/2000/svg">
<g clip-path="url(#clip0_29_378)">
<path d="M1600 0H0V850H1600V0Z" fill="black"/>
<g clip-path="url(#clip1_29_378)">
<path d="M93.3333 62.9629C93.3333 69.6425 90.5238 76.0484 85.5228 80.7716C80.5219 85.4947 73.7391 88.1481 66.6667 88.1481H40L40 37.7778L66.6667 37.7778C73.7391 37.7778 80.5219 40.4312 85.5228 45.1543C90.5238 49.8775 93.3333 56.2834 93.3333 62.9629Z" fill="#00A5F2"/>
</g>
<g clip-path="url(#clip2_29_378)">
<path d="M173.326 214.067C180.398 214.067 187.181 211.414 192.182 206.69C197.183 201.967 199.992 195.561 199.992 188.882C199.992 182.202 197.183 175.796 192.182 171.073C187.181 166.35 180.398 163.697 173.326 163.697V214.067Z" fill="#00DA82"/>
</g>
<g clip-path="url(#clip3_29_378)">
<path d="M440 62.963C440 57.9818 441.564 53.1125 444.494 48.9708C447.424 44.8291 451.589 41.6011 456.462 39.6949C461.335 37.7887 466.696 37.2899 471.869 38.2617C477.042 39.2335 481.794 41.6321 485.523 45.1544C489.252 48.6766 491.792 53.1641 492.821 58.0496C493.85 62.935 493.322 67.9989 491.304 72.6009C489.285 77.2029 485.867 81.1363 481.482 83.9037C477.097 86.6711 471.941 88.1481 466.667 88.1481H440V62.963Z" fill="#3D348B"/>
</g>
<g clip-path="url(#clip4_29_378)">
<path d="M440 188.882C440 195.561 442.81 201.967 447.81 206.69C452.811 211.414 459.594 214.067 466.667 214.067C473.739 214.067 480.522 211.414 485.523 206.69C490.524 201.967 493.333 195.561 493.333 188.882V163.697H466.667C459.594 163.697 452.812 166.351 447.811 171.074C442.81 175.797 440.001 182.202 440 188.882ZM480 176.289V188.882C480 191.372 479.218 193.807 477.753 195.878C476.288 197.949 474.205 199.563 471.769 200.516C469.333 201.469 466.652 201.718 464.065 201.232C461.479 200.747 459.103 199.547 457.239 197.786C455.374 196.025 454.104 193.781 453.59 191.338C453.075 188.896 453.339 186.364 454.348 184.063C455.357 181.762 457.066 179.795 459.259 178.411C461.452 177.028 464.03 176.289 466.667 176.289H480Z" fill="#5D9DDA"/>
</g>
<g clip-path="url(#clip5_29_378)">
<path d="M599.992 88.1481C592.92 88.1481 586.137 85.4947 581.136 80.7716C576.135 76.0484 573.326 69.6425 573.326 62.963V37.7778H626.659V62.963C626.659 69.6425 623.85 76.0484 618.849 80.7716C613.848 85.4947 607.065 88.1481 599.992 88.1481Z" fill="#00A5F2"/>
</g>
<g clip-path="url(#clip6_29_378)">
<path d="M706.674 62.963C706.674 57.9818 708.238 53.1125 711.168 48.9708C714.099 44.8291 718.263 41.6011 723.136 39.6949C728.009 37.7887 733.37 37.2899 738.543 38.2617C743.716 39.2335 748.468 41.6321 752.197 45.1544C755.926 48.6766 758.466 53.1641 759.495 58.0496C760.524 62.935 759.996 67.9989 757.978 72.6009C755.959 77.2029 752.541 81.1363 748.156 83.9037C743.771 86.6711 738.615 88.1481 733.341 88.1481H706.674V62.963Z" fill="#3D348B"/>
</g>
<g clip-path="url(#clip7_29_378)">
<path d="M599.993 163.697C607.065 163.697 613.848 166.35 618.849 171.073C623.85 175.796 626.659 182.202 626.659 188.882V214.067H573.326V188.882C573.326 182.202 576.135 175.796 581.136 171.073C586.137 166.35 592.92 163.697 599.993 163.697Z" fill="#00A5F2"/>
</g>
<g clip-path="url(#clip8_29_378)">
<path d="M866.667 37.7778C873.739 37.7778 880.522 40.4312 885.523 45.1543C890.524 49.8775 893.333 56.2834 893.333 62.9629V88.1481H840V62.9629C840 56.2834 842.81 49.8775 847.811 45.1543C852.812 40.4312 859.594 37.7778 866.667 37.7778Z" fill="#00A5F2"/>
</g>
<g clip-path="url(#clip9_29_378)">
<path d="M973.326 62.963C973.326 57.9818 974.89 53.1125 977.82 48.9708C980.75 44.8291 984.915 41.6011 989.788 39.6949C994.66 37.7887 1000.02 37.2899 1005.19 38.2617C1010.37 39.2335 1015.12 41.6321 1018.85 45.1544C1022.58 48.6766 1025.12 53.1641 1026.15 58.0496C1027.18 62.935 1026.65 67.9989 1024.63 72.6009C1022.61 77.2029 1019.19 81.1363 1014.81 83.9037C1010.42 86.6711 1005.27 88.1481 999.993 88.1481H973.326V62.963Z" fill="#3D348B"/>
</g>
<g clip-path="url(#clip10_29_378)">
<path d="M866.667 163.697C873.739 163.697 880.522 166.35 885.523 171.073C890.524 175.796 893.333 182.202 893.333 188.882V214.067H840V188.882C840 182.202 842.81 175.796 847.811 171.073C852.812 166.35 859.594 163.697 866.667 163.697Z" fill="#00A5F2"/>
</g>
<g clip-path="url(#clip11_29_378)">
<path d="M1160.01 37.7778C1152.94 37.7778 1146.15 40.4312 1141.15 45.1543C1136.15 49.8775 1133.34 56.2834 1133.34 62.9629C1133.34 69.6425 1136.15 76.0484 1141.15 80.7716C1146.15 85.4947 1152.94 88.1481 1160.01 88.1481V37.7778Z" fill="#00DA82"/>
</g>
<g clip-path="url(#clip12_29_378)">
<path d="M1240 62.963C1240 57.9818 1241.56 53.1125 1244.49 48.9708C1247.42 44.8291 1251.59 41.6011 1256.46 39.6949C1261.33 37.7887 1266.7 37.2899 1271.87 38.2617C1277.04 39.2335 1281.79 41.6321 1285.52 45.1544C1289.25 48.6766 1291.79 53.1641 1292.82 58.0496C1293.85 62.935 1293.32 67.9989 1291.3 72.6009C1289.28 77.2029 1285.87 81.1363 1281.48 83.9037C1277.1 86.6711 1271.94 88.1481 1266.67 88.1481H1240V62.963Z" fill="#3D348B"/>
</g>
<g clip-path="url(#clip13_29_378)">
<path d="M1160.01 214.067C1160.01 207.387 1157.2 200.981 1152.2 196.258C1147.2 191.535 1140.41 188.882 1133.34 188.882C1126.27 188.882 1119.49 191.535 1114.48 196.258C1109.48 200.981 1106.67 207.387 1106.67 214.067H1160.01Z" fill="#00DA82"/>
</g>
<g clip-path="url(#clip14_29_378)">
<path d="M1240 188.882C1240 195.561 1242.81 201.967 1247.81 206.69C1252.81 211.414 1259.59 214.067 1266.67 214.067C1273.74 214.067 1280.52 211.414 1285.52 206.69C1290.52 201.967 1293.33 195.561 1293.33 188.882V163.697H1266.67C1259.59 163.697 1252.81 166.351 1247.81 171.074C1242.81 175.797 1240 182.202 1240 188.882ZM1280 176.289V188.882C1280 191.372 1279.22 193.807 1277.75 195.878C1276.29 197.949 1274.21 199.563 1271.77 200.516C1269.33 201.469 1266.65 201.718 1264.07 201.232C1261.48 200.747 1259.1 199.547 1257.24 197.786C1255.37 196.025 1254.1 193.781 1253.59 191.338C1253.08 188.896 1253.34 186.364 1254.35 184.063C1255.36 181.762 1257.07 179.795 1259.26 178.411C1261.45 177.028 1264.03 176.289 1266.67 176.289H1280Z" fill="#5D9DDA"/>
</g>
<g clip-path="url(#clip15_29_378)">
<path d="M1373.33 62.963C1373.33 56.2834 1376.14 49.8775 1381.14 45.1543C1386.14 40.4312 1392.92 37.7778 1399.99 37.7778H1426.66V88.1481H1399.99C1392.92 88.1481 1386.14 85.4947 1381.14 80.7716C1376.14 76.0484 1373.33 69.6425 1373.33 62.963Z" fill="#00A5F2"/>
</g>
<g clip-path="url(#clip16_29_378)">
<path d="M1533.34 88.1481C1528.07 88.1481 1522.91 86.6711 1518.53 83.9037C1514.14 81.1363 1510.72 77.2029 1508.7 72.6009C1506.69 67.9989 1506.16 62.935 1507.19 58.0496C1508.22 53.1641 1510.75 48.6766 1514.48 45.1544C1518.21 41.6321 1522.97 39.2335 1528.14 38.2617C1533.31 37.2899 1538.67 37.7887 1543.55 39.6949C1548.42 41.6011 1552.58 44.8291 1555.51 48.9708C1558.44 53.1125 1560.01 57.9818 1560.01 62.963V88.1481H1533.34Z" fill="#3D348B"/>
</g>
<g clip-path="url(#clip17_29_378)">
<path d="M1426.66 188.882C1426.66 195.561 1423.85 201.967 1418.85 206.69C1413.85 211.414 1407.06 214.067 1399.99 214.067H1373.33V163.697H1399.99C1407.06 163.697 1413.85 166.35 1418.85 171.073C1423.85 175.796 1426.66 182.202 1426.66 188.882Z" fill="#00A5F2"/>
</g>
<g clip-path="url(#clip18_29_378)">
<path d="M1533.34 214.067C1540.41 214.067 1547.2 211.414 1552.2 206.69C1557.2 201.967 1560.01 195.561 1560.01 188.882C1560.01 182.202 1557.2 175.796 1552.2 171.073C1547.2 166.35 1540.41 163.697 1533.34 163.697H1506.67V188.882C1506.68 195.561 1509.48 201.967 1514.49 206.69C1519.49 211.413 1526.27 214.066 1533.34 214.067ZM1520.01 176.289H1533.34C1535.98 176.289 1538.56 177.028 1540.75 178.411C1542.94 179.795 1544.65 181.762 1545.66 184.063C1546.67 186.364 1546.93 188.896 1546.42 191.338C1545.9 193.781 1544.63 196.025 1542.77 197.786C1540.9 199.547 1538.53 200.747 1535.94 201.232C1533.36 201.718 1530.68 201.469 1528.24 200.516C1525.8 199.563 1523.72 197.949 1522.25 195.878C1520.79 193.807 1520.01 191.372 1520.01 188.882V176.289Z" fill="#5D9DDA"/>
</g>
<g clip-path="url(#clip19_29_378)">
<path d="M66.6667 289.637C59.5942 289.637 52.8115 292.29 47.8105 297.013C42.8095 301.736 40 308.142 40 314.822C40 321.501 42.8095 327.907 47.8105 332.631C52.8115 337.354 59.5942 340.007 66.6667 340.007H93.3333V314.822C93.3326 308.143 90.5229 301.737 85.5221 297.014C80.5213 292.291 73.7389 289.637 66.6667 289.637ZM80 327.415H66.6667C64.0296 327.415 61.4517 326.676 59.2591 325.292C57.0664 323.909 55.3574 321.942 54.3483 319.641C53.3391 317.34 53.0751 314.808 53.5895 312.365C54.104 309.923 55.3739 307.679 57.2386 305.918C59.1033 304.157 61.4791 302.957 64.0655 302.471C66.6519 301.985 69.3328 302.235 71.7691 303.188C74.2055 304.141 76.2878 305.755 77.7529 307.826C79.218 309.897 80 312.331 80 314.822V327.415Z" fill="#5D9DDA"/>
</g>
<g clip-path="url(#clip20_29_378)">
<path d="M66.6667 465.926C59.5942 465.926 52.8115 463.272 47.8105 458.549C42.8095 453.826 40 447.42 40 440.741V415.556H93.3333V440.741C93.3333 447.42 90.5238 453.826 85.5228 458.549C80.5219 463.272 73.7391 465.926 66.6667 465.926Z" fill="#00A5F2"/>
</g>
<g clip-path="url(#clip21_29_378)">
<path d="M333.341 340.007C326.268 340.007 319.486 337.354 314.485 332.631C309.484 327.907 306.674 321.501 306.674 314.822V289.637H360.007V314.822C360.007 321.501 357.198 327.907 352.197 332.631C347.196 337.354 340.413 340.007 333.341 340.007Z" fill="#00A5F2"/>
</g>
<g clip-path="url(#clip22_29_378)">
<path d="M466.667 289.637C471.941 289.637 477.097 291.114 481.482 293.881C485.867 296.649 489.285 300.582 491.304 305.184C493.322 309.786 493.85 314.85 492.821 319.735C491.792 324.621 489.252 329.108 485.523 332.631C481.794 336.153 477.042 338.551 471.869 339.523C466.696 340.495 461.335 339.996 456.462 338.09C451.589 336.184 447.424 332.956 444.494 328.814C441.564 324.672 440 319.803 440 314.822V289.637H466.667Z" fill="#3D348B"/>
</g>
<g clip-path="url(#clip23_29_378)">
<path d="M333.341 415.556C340.413 415.556 347.196 418.209 352.197 422.932C357.198 427.655 360.008 434.061 360.008 440.741V465.926H306.674V440.741C306.674 434.061 309.484 427.655 314.485 422.932C319.486 418.209 326.268 415.556 333.341 415.556Z" fill="#00A5F2"/>
</g>
<g clip-path="url(#clip24_29_378)">
<path d="M626.659 314.822C626.659 321.501 623.85 327.907 618.849 332.631C613.848 337.354 607.065 340.007 599.992 340.007H573.326V289.637H599.992C607.065 289.637 613.848 292.29 618.849 297.013C623.85 301.736 626.659 308.142 626.659 314.822Z" fill="#00A5F2"/>
</g>
<g clip-path="url(#clip25_29_378)">
<path d="M599.992 465.926C592.92 465.926 586.137 463.272 581.136 458.549C576.135 453.826 573.326 447.42 573.326 440.741V415.556H626.659V440.741C626.659 447.42 623.85 453.826 618.849 458.549C613.848 463.272 607.065 465.926 599.992 465.926Z" fill="#00A5F2"/>
</g>
<g clip-path="url(#clip26_29_378)">
<path d="M706.674 440.741C706.674 447.42 709.484 453.826 714.485 458.549C719.486 463.273 726.269 465.926 733.341 465.926C740.413 465.926 747.196 463.273 752.197 458.549C757.198 453.826 760.008 447.42 760.008 440.741V415.556H733.341C726.269 415.556 719.486 418.21 714.486 422.933C709.485 427.656 706.675 434.061 706.674 440.741ZM746.674 428.148V440.741C746.674 443.231 745.892 445.666 744.427 447.737C742.962 449.808 740.88 451.422 738.443 452.375C736.007 453.328 733.326 453.577 730.74 453.091C728.153 452.606 725.778 451.406 723.913 449.645C722.048 447.884 720.778 445.64 720.264 443.197C719.749 440.755 720.013 438.223 721.023 435.922C722.032 433.621 723.741 431.654 725.933 430.27C728.126 428.887 730.704 428.148 733.341 428.148H746.674Z" fill="#5D9DDA"/>
</g>
<g clip-path="url(#clip27_29_378)">
<path d="M840 340.007C847.073 340.007 853.855 337.354 858.856 332.631C863.857 327.907 866.667 321.501 866.667 314.822C866.667 308.142 863.857 301.736 858.856 297.013C853.855 292.29 847.073 289.637 840 289.637V340.007Z" fill="#00DA82"/>
</g>
<g clip-path="url(#clip28_29_378)">
<path d="M1133.34 340.007C1140.41 340.007 1147.2 337.354 1152.2 332.631C1157.2 327.907 1160.01 321.501 1160.01 314.822C1160.01 308.142 1157.2 301.736 1152.2 297.013C1147.2 292.29 1140.41 289.637 1133.34 289.637H1106.67V314.822C1106.68 321.501 1109.48 327.907 1114.49 332.63C1119.49 337.353 1126.27 340.006 1133.34 340.007ZM1120.01 302.229H1133.34C1135.98 302.229 1138.56 302.968 1140.75 304.352C1142.94 305.735 1144.65 307.702 1145.66 310.003C1146.67 312.304 1146.93 314.836 1146.42 317.279C1145.9 319.721 1144.63 321.965 1142.77 323.726C1140.9 325.487 1138.53 326.687 1135.94 327.173C1133.36 327.658 1130.68 327.409 1128.24 326.456C1125.8 325.503 1123.72 323.889 1122.25 321.818C1120.79 319.747 1120.01 317.313 1120.01 314.822V302.229Z" fill="#5D9DDA"/>
</g>
<g clip-path="url(#clip29_29_378)">
<path d="M1426.66 314.822C1426.66 321.501 1423.85 327.907 1418.85 332.631C1413.85 337.354 1407.06 340.007 1399.99 340.007H1373.33V289.637H1399.99C1407.06 289.637 1413.85 292.29 1418.85 297.013C1423.85 301.736 1426.66 308.142 1426.66 314.822Z" fill="#00A5F2"/>
</g>
<g clip-path="url(#clip30_29_378)">
<path d="M39.9999 566.66C39.9999 559.98 42.8094 553.574 47.8104 548.851C52.8114 544.128 59.5941 541.474 66.6666 541.474H93.3333V591.845H66.6666C59.5941 591.845 52.8114 589.191 47.8104 584.468C42.8094 579.745 39.9999 573.339 39.9999 566.66Z" fill="#00A5F2"/>
</g>
<g clip-path="url(#clip31_29_378)">
<path d="M199.992 591.845C194.718 591.845 189.562 590.368 185.177 587.6C180.792 584.833 177.374 580.899 175.356 576.297C173.337 571.695 172.809 566.632 173.838 561.746C174.867 556.861 177.407 552.373 181.136 548.851C184.866 545.329 189.617 542.93 194.79 541.958C199.963 540.986 205.325 541.485 210.197 543.391C215.07 545.298 219.235 548.526 222.165 552.667C225.095 556.809 226.659 561.678 226.659 566.66V591.845H199.992Z" fill="#3D348B"/>
</g>
<g clip-path="url(#clip32_29_378)">
<path d="M199.992 667.415C192.92 667.415 186.137 670.068 181.136 674.791C176.135 679.514 173.326 685.92 173.326 692.6C173.326 699.279 176.135 705.685 181.136 710.408C186.137 715.131 192.92 717.785 199.992 717.785H226.659V692.6C226.658 685.92 223.849 679.515 218.848 674.792C213.847 670.069 207.065 667.415 199.992 667.415ZM213.326 705.192H199.992C197.355 705.192 194.777 704.454 192.585 703.07C190.392 701.686 188.683 699.72 187.674 697.419C186.665 695.118 186.401 692.586 186.915 690.143C187.43 687.7 188.7 685.456 190.564 683.695C192.429 681.934 194.805 680.735 197.391 680.249C199.978 679.763 202.658 680.013 205.095 680.966C207.531 681.919 209.614 683.533 211.079 685.604C212.544 687.674 213.326 690.109 213.326 692.6V705.192Z" fill="#5D9DDA"/>
</g>
<g clip-path="url(#clip33_29_378)">
<path d="M306.674 591.845C313.747 591.845 320.529 589.191 325.53 584.468C330.531 579.745 333.341 573.339 333.341 566.66C333.341 559.98 330.531 553.574 325.53 548.851C320.529 544.128 313.747 541.474 306.674 541.474V591.845Z" fill="#00DA82"/>
</g>
<g clip-path="url(#clip34_29_378)">
<path d="M493.333 566.66C493.333 571.641 491.769 576.51 488.839 580.652C485.909 584.793 481.744 588.021 476.872 589.928C471.999 591.834 466.637 592.333 461.464 591.361C456.291 590.389 451.54 587.99 447.81 584.468C444.081 580.946 441.541 576.458 440.512 571.573C439.483 566.687 440.012 561.624 442.03 557.022C444.048 552.42 447.466 548.486 451.851 545.719C456.237 542.951 461.393 541.474 466.667 541.474H493.333V566.66Z" fill="#3D348B"/>
</g>
<g clip-path="url(#clip35_29_378)">
<path d="M333.341 717.785C326.269 717.785 319.486 715.131 314.485 710.408C309.484 705.685 306.674 699.279 306.674 692.6V667.415H360.008V692.6C360.008 699.279 357.198 705.685 352.197 710.408C347.196 715.131 340.413 717.785 333.341 717.785Z" fill="#00A5F2"/>
</g>
<g clip-path="url(#clip36_29_378)">
<path d="M440 717.785C447.072 717.785 453.855 715.131 458.856 710.408C463.857 705.685 466.667 699.279 466.667 692.6C466.667 685.92 463.857 679.514 458.856 674.791C453.855 670.068 447.072 667.415 440 667.415V717.785Z" fill="#00DA82"/>
</g>
<g clip-path="url(#clip37_29_378)">
<path d="M733.341 591.845C728.067 591.845 722.911 590.368 718.526 587.6C714.14 584.833 710.723 580.899 708.704 576.297C706.686 571.695 706.158 566.632 707.187 561.746C708.216 556.861 710.755 552.373 714.485 548.851C718.214 545.329 722.966 542.93 728.139 541.958C733.311 540.986 738.673 541.485 743.546 543.391C748.419 545.298 752.583 548.526 755.514 552.667C758.444 556.809 760.008 561.678 760.008 566.66V591.845H733.341Z" fill="#3D348B"/>
</g>
<g clip-path="url(#clip38_29_378)">
<path d="M573.326 692.6C573.326 685.92 576.135 679.514 581.136 674.791C586.137 670.068 592.92 667.415 599.993 667.415H626.659V717.785H599.993C592.92 717.785 586.137 715.131 581.136 710.408C576.135 705.685 573.326 699.279 573.326 692.6Z" fill="#00A5F2"/>
</g>
<g clip-path="url(#clip39_29_378)">
<path d="M760.008 692.6C760.008 685.92 757.198 679.514 752.197 674.791C747.196 670.068 740.413 667.415 733.341 667.415C726.268 667.415 719.486 670.068 714.485 674.791C709.484 679.514 706.674 685.92 706.674 692.6V717.785H733.341C740.413 717.784 747.195 715.131 752.196 710.408C757.197 705.685 760.007 699.279 760.008 692.6ZM720.008 705.192V692.6C720.008 690.109 720.79 687.674 722.255 685.604C723.72 683.533 725.802 681.919 728.238 680.966C730.675 680.013 733.356 679.763 735.942 680.249C738.529 680.735 740.904 681.934 742.769 683.695C744.634 685.456 745.904 687.7 746.418 690.143C746.933 692.586 746.668 695.118 745.659 697.419C744.65 699.72 742.941 701.686 740.749 703.07C738.556 704.454 735.978 705.192 733.341 705.192H720.008Z" fill="#5D9DDA"/>
</g>
<g clip-path="url(#clip40_29_378)">
<path d="M893.333 566.66C893.333 573.339 890.524 579.745 885.523 584.468C880.522 589.191 873.739 591.845 866.667 591.845H840V541.474H866.667C873.739 541.474 880.522 544.128 885.523 548.851C890.524 553.574 893.333 559.98 893.333 566.66Z" fill="#00A5F2"/>
</g>
<g clip-path="url(#clip41_29_378)">
<path d="M840 692.6C840 685.92 842.81 679.514 847.811 674.791C852.812 670.068 859.594 667.415 866.667 667.415H893.333V717.785H866.667C859.594 717.785 852.812 715.131 847.811 710.408C842.81 705.685 840 699.279 840 692.6Z" fill="#00A5F2"/>
</g>
<g clip-path="url(#clip42_29_378)">
<path d="M1026.66 717.785C1026.66 711.105 1023.85 704.699 1018.85 699.976C1013.85 695.253 1007.06 692.6 999.992 692.6C992.92 692.6 986.137 695.253 981.136 699.976C976.135 704.699 973.326 711.105 973.326 717.785H1026.66Z" fill="#00DA82"/>
</g>
<g clip-path="url(#clip43_29_378)">
<path d="M1106.67 566.66C1106.67 573.339 1109.48 579.745 1114.48 584.468C1119.49 589.191 1126.27 591.845 1133.34 591.845C1140.41 591.845 1147.2 589.191 1152.2 584.468C1157.2 579.745 1160.01 573.339 1160.01 566.66V541.474H1133.34C1126.27 541.475 1119.49 544.129 1114.49 548.852C1109.48 553.575 1106.68 559.98 1106.67 566.66ZM1146.67 554.067V566.66C1146.67 569.15 1145.89 571.585 1144.43 573.656C1142.96 575.726 1140.88 577.34 1138.44 578.294C1136.01 579.247 1133.33 579.496 1130.74 579.01C1128.15 578.524 1125.78 577.325 1123.91 575.564C1122.05 573.803 1120.78 571.559 1120.26 569.116C1119.75 566.674 1120.01 564.142 1121.02 561.841C1122.03 559.54 1123.74 557.573 1125.93 556.189C1128.13 554.806 1130.7 554.067 1133.34 554.067H1146.67Z" fill="#5D9DDA"/>
</g>
<g clip-path="url(#clip44_29_378)">
<path d="M1266.67 591.845C1261.39 591.845 1256.24 590.368 1251.85 587.6C1247.47 584.833 1244.05 580.899 1242.03 576.297C1240.01 571.695 1239.48 566.632 1240.51 561.746C1241.54 556.861 1244.08 552.373 1247.81 548.851C1251.54 545.329 1256.29 542.93 1261.46 541.958C1266.64 540.986 1272 541.485 1276.87 543.391C1281.74 545.298 1285.91 548.526 1288.84 552.667C1291.77 556.809 1293.33 561.678 1293.33 566.66V591.845H1266.67Z" fill="#3D348B"/>
</g>
<g clip-path="url(#clip45_29_378)">
<path d="M1533.34 591.845C1528.07 591.845 1522.91 590.368 1518.53 587.6C1514.14 584.833 1510.72 580.899 1508.7 576.297C1506.69 571.695 1506.16 566.632 1507.19 561.746C1508.22 556.861 1510.75 552.373 1514.48 548.851C1518.21 545.329 1522.97 542.93 1528.14 541.958C1533.31 540.986 1538.67 541.485 1543.55 543.391C1548.42 545.298 1552.58 548.526 1555.51 552.667C1558.44 556.809 1560.01 561.678 1560.01 566.66V591.845H1533.34Z" fill="#3D348B"/>
</g>
<g clip-path="url(#clip46_29_378)">
<path d="M1399.99 717.785C1392.92 717.785 1386.14 715.131 1381.14 710.408C1376.14 705.685 1373.33 699.279 1373.33 692.6V667.415H1426.66V692.6C1426.66 699.279 1423.85 705.685 1418.85 710.408C1413.85 715.131 1407.06 717.785 1399.99 717.785Z" fill="#00A5F2"/>
</g>
<g clip-path="url(#clip47_29_378)">
<path d="M1560.01 692.6C1560.01 685.92 1557.2 679.514 1552.2 674.791C1547.2 670.068 1540.41 667.415 1533.34 667.415C1526.27 667.415 1519.49 670.068 1514.48 674.791C1509.48 679.514 1506.67 685.92 1506.67 692.6V717.785H1533.34C1540.41 717.784 1547.2 715.131 1552.2 710.408C1557.2 705.685 1560.01 699.279 1560.01 692.6ZM1520.01 705.192V692.6C1520.01 690.109 1520.79 687.674 1522.25 685.604C1523.72 683.533 1525.8 681.919 1528.24 680.966C1530.68 680.013 1533.36 679.763 1535.94 680.249C1538.53 680.735 1540.9 681.934 1542.77 683.695C1544.63 685.456 1545.9 687.7 1546.42 690.143C1546.93 692.586 1546.67 695.118 1545.66 697.419C1544.65 699.72 1542.94 701.686 1540.75 703.07C1538.56 704.454 1535.98 705.192 1533.34 705.192H1520.01Z" fill="#5D9DDA"/>
</g>
<g clip-path="url(#clip48_29_378)">
<path d="M93.3334 793.333C86.261 793.333 79.4782 795.987 74.4772 800.71C69.4763 805.433 66.6667 811.839 66.6667 818.519C66.6667 825.198 69.4763 831.604 74.4772 836.327C79.4782 841.05 86.261 843.704 93.3334 843.704L93.3334 793.333Z" fill="#00DA82"/>
</g>
<g clip-path="url(#clip49_29_378)">
<path d="M199.992 843.704C194.718 843.704 189.562 842.227 185.177 839.459C180.792 836.692 177.374 832.758 175.356 828.157C173.337 823.555 172.809 818.491 173.838 813.605C174.867 808.72 177.407 804.232 181.136 800.71C184.866 797.188 189.617 794.789 194.79 793.817C199.963 792.846 205.325 793.344 210.197 795.25C215.07 797.157 219.235 800.385 222.165 804.526C225.095 808.668 226.659 813.537 226.659 818.519V843.704H199.992Z" fill="#3D348B"/>
</g>
<g clip-path="url(#clip50_29_378)">
<path d="M733.341 843.704C728.067 843.704 722.911 842.227 718.526 839.459C714.14 836.692 710.723 832.758 708.704 828.157C706.686 823.555 706.158 818.491 707.187 813.605C708.216 808.72 710.755 804.232 714.485 800.71C718.214 797.188 722.966 794.789 728.139 793.817C733.311 792.846 738.673 793.344 743.546 795.25C748.419 797.157 752.583 800.385 755.514 804.526C758.444 808.668 760.008 813.537 760.008 818.519V843.704H733.341Z" fill="#3D348B"/>
</g>
<g clip-path="url(#clip51_29_378)">
<path d="M866.667 843.704C859.594 843.704 852.811 841.05 847.81 836.327C842.81 831.604 840 825.198 840 818.519V793.333H893.333V818.519C893.333 825.198 890.524 831.604 885.523 836.327C880.522 841.05 873.739 843.704 866.667 843.704Z" fill="#00A5F2"/>
</g>
<g clip-path="url(#clip52_29_378)">
<path d="M1026.66 818.519C1026.66 823.5 1025.1 828.369 1022.16 832.511C1019.23 836.652 1015.07 839.88 1010.2 841.787C1005.32 843.693 999.963 844.192 994.79 843.22C989.617 842.248 984.866 839.849 981.136 836.327C977.407 832.805 974.867 828.317 973.838 823.432C972.809 818.546 973.337 813.483 975.356 808.881C977.374 804.279 980.792 800.345 985.177 797.578C989.562 794.81 994.718 793.333 999.992 793.333H1026.66V818.519Z" fill="#3D348B"/>
</g>
<g clip-path="url(#clip53_29_378)">
<path d="M1266.67 843.704C1261.39 843.704 1256.24 842.227 1251.85 839.459C1247.47 836.692 1244.05 832.758 1242.03 828.157C1240.01 823.555 1239.48 818.491 1240.51 813.605C1241.54 808.72 1244.08 804.232 1247.81 800.71C1251.54 797.188 1256.29 794.789 1261.46 793.817C1266.64 792.846 1272 793.344 1276.87 795.25C1281.74 797.157 1285.91 800.385 1288.84 804.526C1291.77 808.668 1293.33 813.537 1293.33 818.519V843.704H1266.67Z" fill="#3D348B"/>
</g>
<g clip-path="url(#clip54_29_378)">
<path d="M1426.66 818.519C1426.66 811.839 1423.85 805.433 1418.85 800.71C1413.85 795.987 1407.06 793.333 1399.99 793.333C1392.92 793.333 1386.14 795.987 1381.14 800.71C1376.14 805.433 1373.33 811.839 1373.33 818.519V843.704H1399.99C1407.06 843.703 1413.85 841.049 1418.85 836.326C1423.85 831.603 1426.66 825.198 1426.66 818.519ZM1386.66 831.111V818.519C1386.66 816.028 1387.44 813.593 1388.91 811.522C1390.37 809.452 1392.45 807.838 1394.89 806.885C1397.33 805.931 1400.01 805.682 1402.59 806.168C1405.18 806.654 1407.56 807.853 1409.42 809.614C1411.29 811.375 1412.56 813.619 1413.07 816.062C1413.58 818.505 1413.32 821.037 1412.31 823.338C1411.3 825.639 1409.59 827.605 1407.4 828.989C1405.21 830.373 1402.63 831.111 1399.99 831.111H1386.66Z" fill="#5D9DDA"/>
</g>
<g clip-path="url(#clip55_29_378)">
<path d="M1506.67 818.519C1506.67 813.537 1508.24 808.668 1511.17 804.526C1514.1 800.385 1518.26 797.157 1523.14 795.25C1528.01 793.344 1533.37 792.846 1538.54 793.817C1543.72 794.789 1548.47 797.188 1552.2 800.71C1555.93 804.232 1558.47 808.72 1559.5 813.605C1560.52 818.491 1560 823.555 1557.98 828.157C1555.96 832.758 1552.54 836.692 1548.16 839.459C1543.77 842.227 1538.62 843.704 1533.34 843.704H1506.67V818.519Z" fill="#3D348B"/>
</g>
<g filter="url(#filter0_d_29_378)">
<path d="M990 263H1030V303H990V263Z" fill="white"/>
<path d="M1060 358H1090V388H1060V358Z" fill="white"/>
<path d="M1015 308H1045V338H1015V308Z" fill="white"/>
<path d="M760 338H810V388H760V338Z" fill="white"/>
<path d="M760 388H810V438H760V388Z" fill="white"/>
<path d="M760 438H810V488H760V438Z" fill="white"/>
<path d="M760 488H810V538H760V488Z" fill="white"/>
<path d="M760 538H810V588H760V538Z" fill="white"/>
<path d="M810 438H860V488H810V438Z" fill="white"/>
<path d="M860 488H910V538H860V488Z" fill="white"/>
<path d="M860 538H910V588H860V538Z" fill="white"/>
<path d="M910 438H960V488H910V438Z" fill="white"/>
<path d="M960 438H1010V488H960V438Z" fill="white"/>
<path d="M960 488H1010V538H960V488Z" fill="white"/>
<path d="M960 538H1010V588H960V538Z" fill="white"/>
<path d="M960 388H1010V438H960V388Z" fill="white"/>
<path d="M970 343H1010V383H970V343Z" fill="white"/>
<path d="M1015 388H1055V428H1015V388Z" fill="white"/>
<path d="M925 388H955V418H925V388Z" fill="white"/>
<path d="M910 333H960V383H910V333Z" fill="white"/>
<path d="M1050 283H1070V303H1050V283Z" fill="white"/>
</g>
<g filter="url(#filter1_d_29_378)">
<path d="M660 338H710V388H660V338Z" fill="white"/>
<path d="M610 338H660V388H610V338Z" fill="white"/>
<path d="M560 338H610V388H560V338Z" fill="white"/>
<path d="M510 388H560V438H510V388Z" fill="white"/>
<path d="M560 438H610V488H560V438Z" fill="white"/>
<path d="M610 438H660V488H610V438Z" fill="white"/>
<path d="M660 488H710V538H660V488Z" fill="white"/>
<path d="M610 538H660V588H610V538Z" fill="white"/>
<path d="M560 538H610V588H560V538Z" fill="white"/>
<path d="M510 538H560V588H510V538Z" fill="white"/>
</g>
</g>
<defs>
<filter id="filter0_d_29_378" x="756" y="263" width="338" height="333" filterUnits="userSpaceOnUse" color-interpolation-filters="sRGB">
<feFlood flood-opacity="0" result="BackgroundImageFix"/>
<feColorMatrix in="SourceAlpha" type="matrix" values="0 0 0 0 0 0 0 0 0 0 0 0 0 0 0 0 0 0 127 0" result="hardAlpha"/>
<feOffset dy="4"/>
<feGaussianBlur stdDeviation="2"/>
<feComposite in2="hardAlpha" operator="out"/>
<feColorMatrix type="matrix" values="0 0 0 0 0 0 0 0 0 0 0 0 0 0 0 0 0 0 0.25 0"/>
<feBlend mode="normal" in2="BackgroundImageFix" result="effect1_dropShadow_29_378"/>
<feBlend mode="normal" in="SourceGraphic" in2="effect1_dropShadow_29_378" result="shape"/>
</filter>
<filter id="filter1_d_29_378" x="506" y="338" width="208" height="258" filterUnits="userSpaceOnUse" color-interpolation-filters="sRGB">
<feFlood flood-opacity="0" result="BackgroundImageFix"/>
<feColorMatrix in="SourceAlpha" type="matrix" values="0 0 0 0 0 0 0 0 0 0 0 0 0 0 0 0 0 0 127 0" result="hardAlpha"/>
<feOffset dy="4"/>
<feGaussianBlur stdDeviation="2"/>
<feComposite in2="hardAlpha" operator="out"/>
<feColorMatrix type="matrix" values="0 0 0 0 0 0 0 0 0 0 0 0 0 0 0 0 0 0 0.25 0"/>
<feBlend mode="normal" in2="BackgroundImageFix" result="effect1_dropShadow_29_378"/>
<feBlend mode="normal" in="SourceGraphic" in2="effect1_dropShadow_29_378" result="shape"/>
</filter>
<clipPath id="clip0_29_378">
<rect width="1600" height="850" fill="white"/>
</clipPath>
<clipPath id="clip1_29_378">
<rect width="50.3704" height="53.3333" fill="white" transform="matrix(0 -1 1 0 40 88.1481)"/>
</clipPath>
<clipPath id="clip2_29_378">
<rect width="50.3704" height="53.3333" fill="white" transform="matrix(0 1 -1 0 226.659 163.697)"/>
</clipPath>
<clipPath id="clip3_29_378">
<rect width="50.3704" height="53.3333" fill="white" transform="matrix(0 1 -1 0 493.333 37.7778)"/>
</clipPath>
<clipPath id="clip4_29_378">
<rect width="50.3704" height="53.3333" fill="white" transform="matrix(0 -1 1 0 440 214.067)"/>
</clipPath>
<clipPath id="clip5_29_378">
<rect width="53.3333" height="50.3704" fill="white" transform="translate(573.326 37.7778)"/>
</clipPath>
<clipPath id="clip6_29_378">
<rect width="50.3704" height="53.3333" fill="white" transform="matrix(0 1 -1 0 760.008 37.7778)"/>
</clipPath>
<clipPath id="clip7_29_378">
<rect width="53.3333" height="50.3704" fill="white" transform="matrix(-1 0 0 -1 626.659 214.067)"/>
</clipPath>
<clipPath id="clip8_29_378">
<rect width="53.3333" height="50.3704" fill="white" transform="matrix(-1 0 0 -1 893.333 88.1481)"/>
</clipPath>
<clipPath id="clip9_29_378">
<rect width="50.3704" height="53.3333" fill="white" transform="matrix(0 1 -1 0 1026.66 37.7778)"/>
</clipPath>
<clipPath id="clip10_29_378">
<rect width="53.3333" height="50.3704" fill="white" transform="matrix(-1 0 0 -1 893.333 214.067)"/>
</clipPath>
<clipPath id="clip11_29_378">
<rect width="50.3704" height="53.3333" fill="white" transform="matrix(0 -1 1 0 1106.67 88.1481)"/>
</clipPath>
<clipPath id="clip12_29_378">
<rect width="50.3704" height="53.3333" fill="white" transform="matrix(0 1 -1 0 1293.33 37.7778)"/>
</clipPath>
<clipPath id="clip13_29_378">
<rect width="53.3333" height="50.3704" fill="white" transform="translate(1106.67 163.697)"/>
</clipPath>
<clipPath id="clip14_29_378">
<rect width="50.3704" height="53.3333" fill="white" transform="matrix(0 -1 1 0 1240 214.067)"/>
</clipPath>
<clipPath id="clip15_29_378">
<rect width="50.3704" height="53.3333" fill="white" transform="matrix(0 1 -1 0 1426.66 37.7778)"/>
</clipPath>
<clipPath id="clip16_29_378">
<rect width="53.3333" height="50.3704" fill="white" transform="translate(1506.67 37.7778)"/>
</clipPath>
<clipPath id="clip17_29_378">
<rect width="50.3704" height="53.3333" fill="white" transform="matrix(0 -1 1 0 1373.33 214.067)"/>
</clipPath>
<clipPath id="clip18_29_378">
<rect width="53.3333" height="50.3704" fill="white" transform="matrix(-1 0 0 -1 1560.01 214.067)"/>
</clipPath>
<clipPath id="clip19_29_378">
<rect width="53.3333" height="50.3704" fill="white" transform="translate(40 289.637)"/>
</clipPath>
<clipPath id="clip20_29_378">
<rect width="53.3333" height="50.3704" fill="white" transform="translate(40 415.556)"/>
</clipPath>
<clipPath id="clip21_29_378">
<rect width="53.3333" height="50.3704" fill="white" transform="translate(306.674 289.637)"/>
</clipPath>
<clipPath id="clip22_29_378">
<rect width="53.3333" height="50.3704" fill="white" transform="matrix(-1 0 0 -1 493.333 340.007)"/>
</clipPath>
<clipPath id="clip23_29_378">
<rect width="53.3333" height="50.3704" fill="white" transform="matrix(-1 0 0 -1 360.008 465.926)"/>
</clipPath>
<clipPath id="clip24_29_378">
<rect width="50.3704" height="53.3333" fill="white" transform="matrix(0 -1 1 0 573.326 340.007)"/>
</clipPath>
<clipPath id="clip25_29_378">
<rect width="53.3333" height="50.3704" fill="white" transform="translate(573.326 415.556)"/>
</clipPath>
<clipPath id="clip26_29_378">
<rect width="50.3704" height="53.3333" fill="white" transform="matrix(0 -1 1 0 706.674 465.926)"/>
</clipPath>
<clipPath id="clip27_29_378">
<rect width="50.3704" height="53.3333" fill="white" transform="matrix(0 1 -1 0 893.333 289.637)"/>
</clipPath>
<clipPath id="clip28_29_378">
<rect width="53.3333" height="50.3704" fill="white" transform="matrix(-1 0 0 -1 1160.01 340.007)"/>
</clipPath>
<clipPath id="clip29_29_378">
<rect width="50.3704" height="53.3333" fill="white" transform="matrix(0 -1 1 0 1373.33 340.007)"/>
</clipPath>
<clipPath id="clip30_29_378">
<rect width="50.3704" height="53.3333" fill="white" transform="matrix(0 1 -1 0 93.3333 541.474)"/>
</clipPath>
<clipPath id="clip31_29_378">
<rect width="53.3333" height="50.3704" fill="white" transform="translate(173.326 541.474)"/>
</clipPath>
<clipPath id="clip32_29_378">
<rect width="53.3333" height="50.3704" fill="white" transform="translate(173.326 667.415)"/>
</clipPath>
<clipPath id="clip33_29_378">
<rect width="50.3704" height="53.3333" fill="white" transform="matrix(0 1 -1 0 360.008 541.474)"/>
</clipPath>
<clipPath id="clip34_29_378">
<rect width="50.3704" height="53.3333" fill="white" transform="matrix(0 -1 1 0 440 591.845)"/>
</clipPath>
<clipPath id="clip35_29_378">
<rect width="53.3333" height="50.3704" fill="white" transform="translate(306.674 667.415)"/>
</clipPath>
<clipPath id="clip36_29_378">
<rect width="50.3704" height="53.3333" fill="white" transform="matrix(0 1 -1 0 493.333 667.415)"/>
</clipPath>
<clipPath id="clip37_29_378">
<rect width="53.3333" height="50.3704" fill="white" transform="translate(706.674 541.474)"/>
</clipPath>
<clipPath id="clip38_29_378">
<rect width="50.3704" height="53.3333" fill="white" transform="matrix(0 1 -1 0 626.659 667.415)"/>
</clipPath>
<clipPath id="clip39_29_378">
<rect width="50.3704" height="53.3333" fill="white" transform="matrix(0 1 -1 0 760.008 667.415)"/>
</clipPath>
<clipPath id="clip40_29_378">
<rect width="50.3704" height="53.3333" fill="white" transform="matrix(0 -1 1 0 840 591.845)"/>
</clipPath>
<clipPath id="clip41_29_378">
<rect width="50.3704" height="53.3333" fill="white" transform="matrix(0 1 -1 0 893.333 667.415)"/>
</clipPath>
<clipPath id="clip42_29_378">
<rect width="53.3333" height="50.3704" fill="white" transform="translate(973.326 667.415)"/>
</clipPath>
<clipPath id="clip43_29_378">
<rect width="50.3704" height="53.3333" fill="white" transform="matrix(0 -1 1 0 1106.67 591.845)"/>
</clipPath>
<clipPath id="clip44_29_378">
<rect width="53.3333" height="50.3704" fill="white" transform="translate(1240 541.474)"/>
</clipPath>
<clipPath id="clip45_29_378">
<rect width="53.3333" height="50.3704" fill="white" transform="translate(1506.67 541.474)"/>
</clipPath>
<clipPath id="clip46_29_378">
<rect width="53.3333" height="50.3704" fill="white" transform="translate(1373.33 667.415)"/>
</clipPath>
<clipPath id="clip47_29_378">
<rect width="50.3704" height="53.3333" fill="white" transform="matrix(0 1 -1 0 1560.01 667.415)"/>
</clipPath>
<clipPath id="clip48_29_378">
<rect width="50.3704" height="53.3333" fill="white" transform="matrix(0 -1 1 0 40 843.704)"/>
</clipPath>
<clipPath id="clip49_29_378">
<rect width="53.3333" height="50.3704" fill="white" transform="translate(173.326 793.333)"/>
</clipPath>
<clipPath id="clip50_29_378">
<rect width="53.3333" height="50.3704" fill="white" transform="translate(706.674 793.333)"/>
</clipPath>
<clipPath id="clip51_29_378">
<rect width="53.3333" height="50.3704" fill="white" transform="translate(840 793.333)"/>
</clipPath>
<clipPath id="clip52_29_378">
<rect width="50.3704" height="53.3333" fill="white" transform="matrix(0 -1 1 0 973.326 843.704)"/>
</clipPath>
<clipPath id="clip53_29_378">
<rect width="53.3333" height="50.3704" fill="white" transform="translate(1240 793.333)"/>
</clipPath>
<clipPath id="clip54_29_378">
<rect width="50.3704" height="53.3333" fill="white" transform="matrix(0 1 -1 0 1426.66 793.333)"/>
</clipPath>
<clipPath id="clip55_29_378">
<rect width="50.3704" height="53.3333" fill="white" transform="matrix(0 1 -1 0 1560.01 793.333)"/>
</clipPath>
</defs>
</svg>
