<svg width="588" height="333" viewBox="0 0 588 333" fill="none" xmlns="http://www.w3.org/2000/svg">
<g filter="url(#filter0_d_1_44)">
<path d="M484 0H524V40H484V0Z" fill="white"/>
<path d="M554 95H584V125H554V95Z" fill="white"/>
<path d="M509 45H539V75H509V45Z" fill="white"/>
<path d="M254 75H304V125H254V75Z" fill="white"/>
<path d="M254 125H304V175H254V125Z" fill="white"/>
<path d="M254 175H304V225H254V175Z" fill="white"/>
<path d="M254 225H304V275H254V225Z" fill="white"/>
<path d="M254 275H304V325H254V275Z" fill="white"/>
<path d="M304 175H354V225H304V175Z" fill="white"/>
<path d="M354 225H404V275H354V225Z" fill="white"/>
<path d="M354 275H404V325H354V275Z" fill="white"/>
<path d="M404 175H454V225H404V175Z" fill="white"/>
<path d="M454 175H504V225H454V175Z" fill="white"/>
<path d="M454 225H504V275H454V225Z" fill="white"/>
<path d="M454 275H504V325H454V275Z" fill="white"/>
<path d="M454 125H504V175H454V125Z" fill="white"/>
<path d="M464 80H504V120H464V80Z" fill="white"/>
<path d="M509 125H549V165H509V125Z" fill="white"/>
<path d="M419 125H449V155H419V125Z" fill="white"/>
<path d="M404 70H454V120H404V70Z" fill="white"/>
<path d="M544 20H564V40H544V20Z" fill="white"/>
</g>
<g filter="url(#filter1_d_1_44)">
<path d="M154 75H204V125H154V75Z" fill="white"/>
<path d="M104 75H154V125H104V75Z" fill="white"/>
<path d="M54 75H104V125H54V75Z" fill="white"/>
<path d="M4 125H54V175H4V125Z" fill="white"/>
<path d="M54 175H104V225H54V175Z" fill="white"/>
<path d="M104 175H154V225H104V175Z" fill="white"/>
<path d="M154 225H204V275H154V225Z" fill="white"/>
<path d="M104 275H154V325H104V275Z" fill="white"/>
<path d="M54 275H104V325H54V275Z" fill="white"/>
<path d="M4 275H54V325H4V275Z" fill="white"/>
</g>
<defs>
<filter id="filter0_d_1_44" x="250" y="0" width="338" height="333" filterUnits="userSpaceOnUse" color-interpolation-filters="sRGB">
<feFlood flood-opacity="0" result="BackgroundImageFix"/>
<feColorMatrix in="SourceAlpha" type="matrix" values="0 0 0 0 0 0 0 0 0 0 0 0 0 0 0 0 0 0 127 0" result="hardAlpha"/>
<feOffset dy="4"/>
<feGaussianBlur stdDeviation="2"/>
<feComposite in2="hardAlpha" operator="out"/>
<feColorMatrix type="matrix" values="0 0 0 0 0 0 0 0 0 0 0 0 0 0 0 0 0 0 0.25 0"/>
<feBlend mode="normal" in2="BackgroundImageFix" result="effect1_dropShadow_1_44"/>
<feBlend mode="normal" in="SourceGraphic" in2="effect1_dropShadow_1_44" result="shape"/>
</filter>
<filter id="filter1_d_1_44" x="0" y="75" width="208" height="258" filterUnits="userSpaceOnUse" color-interpolation-filters="sRGB">
<feFlood flood-opacity="0" result="BackgroundImageFix"/>
<feColorMatrix in="SourceAlpha" type="matrix" values="0 0 0 0 0 0 0 0 0 0 0 0 0 0 0 0 0 0 127 0" result="hardAlpha"/>
<feOffset dy="4"/>
<feGaussianBlur stdDeviation="2"/>
<feComposite in2="hardAlpha" operator="out"/>
<feColorMatrix type="matrix" values="0 0 0 0 0 0 0 0 0 0 0 0 0 0 0 0 0 0 0.25 0"/>
<feBlend mode="normal" in2="BackgroundImageFix" result="effect1_dropShadow_1_44"/>
<feBlend mode="normal" in="SourceGraphic" in2="effect1_dropShadow_1_44" result="shape"/>
</filter>
</defs>
</svg>
