<?xml version="1.0" standalone="no"?>
<!DOCTYPE svg PUBLIC "-//W3C//DTD SVG 20010904//EN"
 "http://www.w3.org/TR/2001/REC-SVG-20010904/DTD/svg10.dtd">
<svg version="1.0" xmlns="http://www.w3.org/2000/svg"
 width="1176.000000pt" height="1176.000000pt" viewBox="0 0 1176.000000 1176.000000"
 preserveAspectRatio="xMidYMid meet">
<metadata>
Created by potrace 1.14, written by Peter Selinger 2001-2017
</metadata>
<g transform="translate(0.000000,1176.000000) scale(0.100000,-0.100000)"
fill="#000000" stroke="none">
<path d="M9723 8403 c-38 -5 -41 -15 -13 -43 19 -19 33 -20 373 -20 330 0 355
1 370 18 27 29 20 39 -29 46 -50 6 -646 6 -701 -1z"/>
<path d="M10923 8403 c-39 -5 -43 -25 -11 -47 18 -13 53 -16 174 -16 133 0
153 2 167 18 27 29 20 39 -29 46 -49 6 -245 6 -301 -1z"/>
<path d="M10213 7703 c-20 -7 -15 -41 6 -53 12 -6 114 -10 263 -10 204 0 247
3 266 16 28 20 28 40 0 48 -27 7 -518 7 -535 -1z"/>
<path d="M8090 6791 c0 -5 9 -19 19 -32 l19 -24 452 0 452 0 19 24 c10 13 19
27 19 32 0 5 -211 9 -490 9 -279 0 -490 -4 -490 -9z"/>
<path d="M9290 6787 c0 -8 9 -22 21 -33 20 -18 41 -19 371 -19 l350 0 19 24
c10 13 19 27 19 32 0 5 -169 9 -390 9 -320 0 -390 -2 -390 -13z"/>
<path d="M1092 6673 l3 -28 1469 -3 c1357 -2 1471 -1 1488 15 50 45 107 43
-1473 43 l-1490 0 3 -27z"/>
<path d="M11090 6692 c0 -4 7 -18 16 -30 15 -22 18 -22 270 -22 241 0 255 1
274 20 11 11 20 25 20 30 0 6 -103 10 -290 10 -159 0 -290 -3 -290 -8z"/>
<path d="M8408 6103 c-23 -6 -23 -18 2 -43 19 -19 33 -20 270 -20 237 0 251 1
270 20 26 26 25 36 -2 44 -26 7 -514 6 -540 -1z"/>
<path d="M10190 5890 c0 -5 9 -19 20 -30 19 -19 33 -20 373 -20 330 0 355 1
370 18 38 42 34 42 -373 42 -253 0 -390 -4 -390 -10z"/>
<path d="M90 5691 c0 -5 8 -18 18 -30 17 -20 23 -21 479 -22 254 0 467 2 472
6 6 3 11 17 11 31 l0 24 -490 0 c-279 0 -490 -4 -490 -9z"/>
<path d="M1100 4691 c0 -11 10 -27 22 -35 20 -14 130 -16 980 -16 l958 0 6 24
c3 14 3 30 -1 35 -4 8 -308 11 -986 11 -963 0 -979 0 -979 -19z"/>
<path d="M6082 4668 c3 -37 6 -42 23 -39 11 3 230 6 487 8 l468 3 6 25 c3 13
3 29 -1 34 -4 8 -163 11 -496 11 l-490 0 3 -42z"/>
<path d="M8094 4696 c-3 -8 -4 -23 -2 -33 3 -17 30 -18 474 -23 379 -4 474 -8
487 -19 15 -12 17 -9 17 38 l0 51 -485 0 c-414 0 -486 -2 -491 -14z"/>
<path d="M3100 3695 c-6 -8 -9 -23 -5 -35 6 -20 12 -20 468 -20 403 0 465 2
485 16 26 18 29 39 6 48 -9 3 -224 6 -479 6 -392 0 -464 -2 -475 -15z"/>
<path d="M90 2692 c0 -4 7 -18 16 -30 l15 -22 1459 0 1459 0 15 22 c9 12 16
26 16 30 0 5 -670 8 -1490 8 -820 0 -1490 -3 -1490 -8z"/>
<path d="M5100 2680 c0 -10 9 -24 19 -30 13 -6 179 -10 470 -10 l450 0 15 22
c9 12 16 26 16 30 0 5 -218 8 -485 8 -475 0 -485 0 -485 -20z"/>
<path d="M7090 2692 c0 -4 7 -18 16 -30 l15 -22 458 0 c431 0 459 1 474 18 10
10 17 24 17 30 0 9 -122 12 -490 12 -269 0 -490 -3 -490 -8z"/>
<path d="M9090 2687 c0 -8 8 -21 18 -30 17 -15 64 -17 475 -17 l456 0 15 22
c9 12 16 26 16 30 0 5 -220 8 -490 8 -404 0 -490 -2 -490 -13z"/>
</g>
</svg>
